#!OML:ASF I:\Actors\actors\Patient Classification 2\Patient 1\Session 1\actor1.ASF
:FULLY-SPECIFIED
:DEGREES
220
root -0.541936 18.7344 5.40822 2.14723 -2.92563 -3.53634
lowerback 6.24321 0.777399 -1.48349
upperback 1.28428 0.91638 -0.812332
thorax -2.18623 0.463268 -0.0764121
lowerneck -14.7552 -3.0235 0.0450983
upperneck 30.4 -6.49374 6.28692
head 12.8213 -2.06181 1.41542
rclavicle 2.78299e-015 -9.54166e-015
rhumerus 5.70951 43.5774 -55.8753
rradius 83.3188
rwrist 4.61004
rhand 1.99582 -46.9859
rfingers 7.12502
rthumb 27.5006 -434.998
lclavicle 2.78299e-015 -9.54166e-015
lhumerus 0.0815375 -34.1518 72.2822
lradius 73.7955
lwrist 8.69742
lhand -5.60161 -38.7057
lfingers 7.12502
lthumb 20.2153 -9.7376
rfemur 0 0 0
rtibia 0
rfoot 0 0
rtoes 0
lfemur -6.08332 -5.51537 -10.9608
ltibia 23.4054
lfoot -23.5963 15.3975
ltoes -54.3924
221
root -0.541487 18.7358 5.41125 2.15642 -2.75452 -3.53981
lowerback 6.26455 0.73115 -1.20939
upperback 1.3003 0.871037 -0.876426
thorax -2.17616 0.438908 -0.292529
lowerneck -14.7613 -2.95107 0.0443179
upperneck 30.4307 -6.40999 6.35051
head 12.8349 -2.01516 1.45361
rclavicle 1.59028e-015 -1.59028e-015
rhumerus 6.08696 42.3077 -55.8165
rradius 83.5247
rwrist 4.97944
rhand 2.10974 -46.3706
rfingers 7.12502
rthumb 27.6095 -434.365
lclavicle 1.59028e-015 -1.59028e-015
lhumerus -0.195267 -33.9258 72.6603
lradius 74.0625
lwrist 8.65686
lhand -5.62751 -38.1578
lfingers 7.12502
lthumb 20.1904 -9.18703
rfemur 0 0 0
rtibia 0
rfoot 0 0
rtoes 0
lfemur -6.15799 -5.66662 -10.9507
ltibia 23.4511
lfoot -23.5951 15.3974
ltoes -54.387
222
root -0.544635 18.7358 5.41653 2.13757 -2.67836 -3.52885
lowerback 6.26681 0.748494 -0.97031
upperback 1.31953 0.907512 -0.976995
thorax -2.15246 0.45547 -0.532845
lowerneck -14.8346 -2.91733 0.110348
upperneck 30.5101 -6.39255 6.36645
head 12.8819 -1.99301 1.45145
rclavicle -1.11319e-014 1.82882e-014
rhumerus 6.26993 41.3987 -55.7268
rradius 83.5043
rwrist 5.19695
rhand 2.03671 -45.7512
rfingers 7.12502
rthumb 27.5397 -433.757
lclavicle -1.11319e-014 1.82882e-014
lhumerus -0.323979 -33.8241 72.9965
lradius 74.1448
lwrist 8.54006
lhand -5.66714 -37.7342
lfingers 7.12502
lthumb 20.1523 -8.75948
rfemur 0 0 0
rtibia 0
rfoot 0 0
rtoes 0
lfemur -6.13425 -5.76034 -10.9658
ltibia 23.4205
lfoot -23.5472 15.5113
ltoes -54.4665
223
root -0.54894 18.7349 5.42437 2.13359 -2.68489 -3.46712
lowerback 6.34899 0.846784 -0.73695
upperback 1.23836 1.04693 -1.14948
thorax -2.27422 0.523322 -0.854738
lowerneck -14.971 -2.96813 0.135344
upperneck 30.7354 -6.5346 6.48076
head 13.0172 -2.02668 1.47112
rclavicle -1.04362e-014 4.77083e-015
rhumerus 5.92308 40.9659 -55.7973
rradius 83.2254
rwrist 5.47199
rhand 1.8638 -44.9773
rfingers 7.12502
rthumb 27.3743 -433.009
lclavicle -1.04362e-014 4.77083e-015
lhumerus -0.436959 -33.9667 73.3283
lradius 74.142
lwrist 8.49272
lhand -5.5829 -37.2389
lfingers 7.12502
lthumb 20.2333 -8.27267
rfemur 0 0 0
rtibia 0
rfoot 0 0
rtoes 0
lfemur -6.09517 -5.68655 -11.0322
ltibia 23.3913
lfoot -23.4822 15.5118
ltoes -54.2356
224
root -0.551578 18.7362 5.43425 2.15684 -2.63909 -3.41149
lowerback 6.51928 0.979546 -0.475722
upperback 1.0542 1.2318 -1.32533
thorax -2.54791 0.612517 -1.20352
lowerneck -15.0567 -3.11577 -0.0400004
upperneck 30.9569 -6.83159 6.8136
head 13.1665 -2.12376 1.5871
rclavicle -2.5842e-015 -1.19271e-014
rhumerus 5.0581 40.9827 -55.9636
rradius 82.7321
rwrist 6.08115
rhand 2.07021 -44.2274
rfingers 7.12502
rthumb 27.5717 -432.228
lclavicle -2.5842e-015 -1.19271e-014
lhumerus -0.603196 -34.2979 73.7678
lradius 74.1164
lwrist 8.4517
lhand -5.48197 -36.7229
lfingers 7.12502
lthumb 20.3303 -7.76705
rfemur 0 0 0
rtibia 0
rfoot 0 0
rtoes 0
lfemur -6.06722 -5.7188 -11.0727
ltibia 23.3713
lfoot -23.6214 15.3209
ltoes -54.3547
225
root -0.554202 18.7384 5.44441 2.19349 -2.50844 -3.41678
lowerback 6.43919 1.05069 -0.441316
upperback 1.00997 1.33046 -1.28904
thorax -2.5472 0.661456 -1.19273
lowerneck -15.1892 -3.25341 -0.395198
upperneck 31.03 -7.03513 7.10494
head 13.2642 -2.2096 1.73006
rclavicle 2.98177e-015 -3.97569e-015
rhumerus 4.5693 41.5955 -55.5259
rradius 82.0579
rwrist 6.62305
rhand 2.79912 -43.6408
rfingers 7.12502
rthumb 28.2686 -431.528
lclavicle 2.98177e-015 -3.97569e-015
lhumerus -0.624905 -34.3615 74.3072
lradius 74.0423
lwrist 8.34443
lhand -5.487 -36.2839
lfingers 7.12502
lthumb 20.3254 -7.32753
rfemur 0 0 0
rtibia 0
rfoot 0 0
rtoes 0
lfemur -6.08325 -5.90861 -11.0427
ltibia 23.3891
lfoot -23.8035 15.2124
ltoes -54.1744
226
root -0.557855 18.7384 5.45411 2.22634 -2.40917 -3.45391
lowerback 6.02669 1.06893 -0.692206
upperback 1.18554 1.35212 -1.05503
thorax -2.14726 0.675471 -0.801331
lowerneck -15.4777 -3.33319 -0.734364
upperneck 30.9957 -7.07521 7.17022
head 13.3292 -2.25104 1.80359
rclavicle -4.96962e-016 9.54166e-015
rhumerus 4.76162 42.7977 -54.3897
rradius 81.3079
rwrist 6.36051
rhand 3.09856 -43.4411
rfingers 7.12502
rthumb 28.5547 -431.281
lclavicle -4.96962e-016 9.54166e-015
lhumerus -0.39957 -34.055 74.7965
lradius 74.0008
lwrist 8.24536
lhand -5.54385 -35.8832
lfingers 7.12502
lthumb 20.2708 -6.92102
rfemur 0 0 0
rtibia 0
rfoot 0 0
rtoes 0
lfemur -6.13448 -5.93861 -10.9792
ltibia 23.4662
lfoot -23.8446 15.1358
ltoes -54.1678
227
root -0.553724 18.7384 5.45625 2.30746 -2.47855 -3.51019
lowerback 6.31617 1.22677 -0.483698
upperback 0.918252 1.5687 -1.06453
thorax -2.57643 0.781127 -0.956352
lowerneck -15.4973 -3.52921 -0.883756
upperneck 31.1452 -7.34664 7.21311
head 13.4207 -2.37556 1.8049
rclavicle -2.19657e-014 2.38542e-015
rhumerus 3.83631 44.0886 -54.1649
rradius 80.6901
rwrist 5.79762
rhand 2.88083 -43.575
rfingers 7.12502
rthumb 28.3467 -431.449
lclavicle -2.19657e-014 2.38542e-015
lhumerus -0.680998 -34.3399 75.3685
lradius 74.094
lwrist 8.15808
lhand -5.59571 -35.456
lfingers 7.12502
lthumb 20.221 -6.48847
rfemur 0 0 0
rtibia 0
rfoot 0 0
rtoes 0
lfemur -6.22228 -5.9455 -10.947
ltibia 23.4975
lfoot -23.8664 15.2633
ltoes -54.2431
228
root -0.540076 18.7403 5.4498 2.4564 -2.51331 -3.57901
lowerback 6.14054 1.29783 -0.407534
upperback 0.996238 1.67605 -0.885133
thorax -2.39988 0.834961 -0.817461
lowerneck -15.7972 -3.64426 -1.08993
upperneck 31.0977 -7.4037 7.06982
head 13.4681 -2.43608 1.76924
rclavicle -3.37934e-015 -7.15625e-015
rhumerus 4.16806 45.0924 -52.9867
rradius 80.1267
rwrist 5.54719
rhand 3.34546 -43.5881
rfingers 7.12502
rthumb 28.7906 -431.388
lclavicle -3.37934e-015 -7.15625e-015
lhumerus -0.390109 -34.1485 75.7857
lradius 74.1361
lwrist 8.02676
lhand -5.63245 -34.9138
lfingers 7.12502
lthumb 20.1856 -5.94257
rfemur 0 0 0
rtibia 0
rfoot 0 0
rtoes 0
lfemur -6.48013 -6.06653 -10.9305
ltibia 23.5906
lfoot -23.8804 15.5012
ltoes -54.3874
229
root -0.547902 18.7446 5.45148 2.70917 -2.45323 -3.15505
lowerback 6.06929 1.38986 -0.938743
upperback 0.828933 1.76202 -0.912447
thorax -2.54671 0.882227 -0.555953
lowerneck -15.8326 -3.7476 -1.19966
upperneck 31.1516 -7.50452 7.00615
head 13.5051 -2.49798 1.74691
rclavicle 4.72114e-014 -4.77083e-015
rhumerus 4.0818 45.6786 -52.362
rradius 79.7507
rwrist 5.57869
rhand 4.04211 -43.2841
rfingers 7.12502
rthumb 29.4559 -430.969
lclavicle 4.72114e-014 -4.77083e-015
lhumerus -0.52844 -34.2987 76.1606
lradius 74.2972
lwrist 8.02062
lhand -5.62974 -34.4217
lfingers 7.12502
lthumb 20.1883 -5.45078
rfemur 0 0 0
rtibia 0
rfoot 0 0
rtoes 0
lfemur -6.82014 -6.11173 -11.3486
ltibia 23.5537
lfoot -23.7906 15.5428
ltoes -54.3996
230
root -0.535201 18.7408 5.44603 2.54063 -2.22813 -3.5513
lowerback 6.57592 1.34098 -0.155105
upperback 0.766128 1.74607 -0.858536
thorax -2.87281 0.865966 -0.953237
lowerneck -15.7052 -3.77227 -1.1678
upperneck 31.1248 -7.51541 6.92091
head 13.4602 -2.51399 1.70756
rclavicle -9.93923e-015 -1.27222e-014
rhumerus 4.25346 45.8125 -51.8559
rradius 79.6099
rwrist 5.37791
rhand 4.22611 -42.9875
rfingers 7.12502
rthumb 29.6316 -430.641
lclavicle -9.93923e-015 -1.27222e-014
lhumerus -0.731363 -34.4632 76.2862
lradius 74.5583
lwrist 8.10746
lhand -5.64043 -34.071
lfingers 7.12502
lthumb 20.178 -5.09894
rfemur 0 0 0
rtibia 0
rfoot 0 0
rtoes 0
lfemur -6.62747 -6.12401 -10.9382
ltibia 23.4798
lfoot -23.6654 15.3202
ltoes -54.3678
231
root -0.558626 18.7459 5.4518 2.71275 -2.33439 -2.92232
lowerback 6.05269 1.36345 -1.21961
upperback 0.936716 1.71153 -0.858855
thorax -2.43636 0.859369 -0.337152
lowerneck -15.627 -3.68077 -1.14622
upperneck 30.8929 -7.31468 6.77809
head 13.3231 -2.45163 1.67788
rclavicle 1.61016e-014 -1.59028e-015
rhumerus 5.4309 45.4018 -50.8346
rradius 79.7172
rwrist 5.12217
rhand 4.29322 -42.734
rfingers 7.12502
rthumb 29.6956 -430.376
lclavicle 1.61016e-014 -1.59028e-015
lhumerus -0.563963 -34.2645 76.0653
lradius 74.8532
lwrist 8.1811
lhand -5.72833 -33.7719
lfingers 7.12502
lthumb 20.0935 -4.79093
rfemur 0 0 0
rtibia 0
rfoot 0 0
rtoes 0
lfemur -6.75476 -6.36513 -11.5773
ltibia 23.3246
lfoot -23.7086 15.6072
ltoes -54.2288
